<svg width="600" height="164" viewBox="0 0 600 164" fill="none" xmlns="http://www.w3.org/2000/svg">
<g clip-path="url(#clip0_1_2)">
<path d="M33.4443 120.625C30.361 120.625 28.1527 119.958 26.8193 118.625C25.486 117.208 24.8193 114.583 24.8193 110.75C24.8193 108.167 25.0693 104.875 25.5693 100.875C26.1527 96.7917 27.0693 91.2083 28.3193 84.125C30.486 71.0417 32.1943 59.7083 33.4443 50.125C34.1943 44.125 34.5693 39.125 34.5693 35.125C34.5693 31.375 33.1943 29.5 30.4443 29.5C28.2777 29.5 25.6527 30.625 22.5693 32.875C19.5693 35.0417 16.236 38.5417 12.5693 43.375C11.4027 44.9583 10.111 45.75 8.69434 45.75C7.52767 45.75 6.486 45.2083 5.56934 44.125C4.736 42.9583 4.31934 41.6667 4.31934 40.25C4.31934 38.9167 4.56934 37.5833 5.06934 36.25C5.65267 34.8333 6.56934 33.25 7.81934 31.5C11.8193 25.9167 16.2777 21.625 21.1943 18.625C26.111 15.5417 31.0277 14 35.9443 14C40.5277 14 44.0277 15.4583 46.4443 18.375C48.9443 21.2917 50.1943 25.5417 50.1943 31.125C50.1943 33.375 49.986 36.0417 49.5693 39.125C49.1527 42.125 48.7777 44.5833 48.4443 46.5C48.111 48.4167 47.861 49.75 47.6943 50.5C52.4443 36.9167 57.7777 27.4583 63.6943 22.125C69.611 16.7083 76.111 14 83.1943 14C88.611 14 92.861 15.9167 95.9443 19.75C99.111 23.5833 100.694 29 100.694 36C100.694 38.75 100.319 42.1667 99.5693 46.25C103.736 34.75 108.611 26.5 114.194 21.5C119.778 16.5 126.194 14 133.444 14C139.278 14 143.736 15.875 146.819 19.625C149.986 23.375 151.569 28.625 151.569 35.375C151.569 39.0417 151.028 43.5 149.944 48.75L142.319 84.5C141.486 88.6667 141.069 92.25 141.069 95.25C141.069 98.75 141.861 101.375 143.444 103.125C145.111 104.875 147.403 105.75 150.319 105.75C153.069 105.75 155.736 104.833 158.319 103C160.986 101.167 164.111 98.125 167.694 93.875C168.694 92.7083 169.819 92.125 171.069 92.125C172.153 92.125 172.986 92.625 173.569 93.625C174.236 94.625 174.569 96 174.569 97.75C174.569 101 173.778 103.583 172.194 105.5C167.861 110.75 163.569 114.583 159.319 117C155.069 119.417 150.611 120.625 145.944 120.625C138.861 120.625 133.319 118.542 129.319 114.375C125.319 110.125 123.319 104.458 123.319 97.375C123.319 92.4583 124.319 85.3333 126.319 76L131.319 53.125C131.486 52.375 131.778 51.0417 132.194 49.125C132.611 47.2083 132.944 45.4167 133.194 43.75C133.444 42 133.569 40.2917 133.569 38.625C133.569 35.7083 132.986 33.5417 131.819 32.125C130.736 30.625 129.153 29.875 127.069 29.875C123.153 29.875 119.028 32.4167 114.694 37.5C110.444 42.5 106.361 50.8333 102.444 62.5C98.611 74.1667 95.486 89.3333 93.0693 108C92.486 113 91.4443 116.375 89.9443 118.125C88.5277 119.792 86.1943 120.625 82.9443 120.625C80.111 120.625 78.0277 119.958 76.6943 118.625C75.4443 117.292 74.8193 114.792 74.8193 111.125C74.8193 107.708 75.2777 103.25 76.1943 97.75C77.111 92.1667 78.2777 85.625 79.6943 78.125C83.5277 57.9583 85.4443 44.9583 85.4443 39.125C85.4443 35.9583 84.8193 33.625 83.5693 32.125C82.4027 30.625 80.611 29.875 78.1943 29.875C74.111 29.875 69.9027 32.2083 65.5693 36.875C61.236 41.4583 56.986 49.6667 52.8193 61.5C48.736 73.25 45.3193 89.1667 42.5693 109.25C41.986 113.5 41.111 116.458 39.9443 118.125C38.861 119.792 36.6943 120.625 33.4443 120.625ZM265.997 132C266.83 132 267.455 132.417 267.872 133.25C268.372 134.167 268.622 135.333 268.622 136.75C268.622 139.417 267.914 142.042 266.497 144.625C263.664 149.792 259.914 153.75 255.247 156.5C250.664 159.333 245.955 160.75 241.122 160.75C236.205 160.75 232.08 159.958 228.747 158.375C225.414 156.875 222.58 154.583 220.247 151.5C217.914 148.5 215.664 144.5 213.497 139.5C211.247 134.333 209.372 130.458 207.872 127.875C206.455 125.375 204.955 123.542 203.372 122.375C201.789 121.208 199.747 120.375 197.247 119.875C187.997 118.042 180.539 113.458 174.872 106.125C169.289 98.7917 166.497 89.3333 166.497 77.75C166.497 65.0833 168.789 53.9167 173.372 44.25C178.039 34.5833 184.33 27.125 192.247 21.875C200.247 16.625 209.08 14 218.747 14C226.164 14 232.83 15.6667 238.747 19C244.747 22.3333 249.497 27.25 252.997 33.75C256.497 40.1667 258.247 47.875 258.247 56.875C258.247 67.375 256.664 76.8333 253.497 85.25C250.33 93.6667 245.955 100.667 240.372 106.25C234.789 111.833 228.372 115.792 221.122 118.125C223.205 119.292 224.997 121 226.497 123.25C228.08 125.5 229.747 128.75 231.497 133C233.414 137.667 235.455 141 237.622 143C239.872 145 242.622 146 245.872 146C248.622 146 251.289 145.042 253.872 143.125C256.455 141.292 259.372 138.25 262.622 134C263.622 132.667 264.747 132 265.997 132ZM207.247 105.875C213.747 105.875 219.455 103.875 224.372 99.875C229.372 95.875 233.205 90.3333 235.872 83.25C238.539 76.0833 239.872 68 239.872 59C239.872 49.0833 237.789 41.5833 233.622 36.5C229.455 31.3333 224.08 28.75 217.497 28.75C211.164 28.75 205.497 30.7917 200.497 34.875C195.58 38.875 191.747 44.4167 188.997 51.5C186.247 58.5833 184.872 66.625 184.872 75.625C184.872 85.5417 186.955 93.0833 191.122 98.25C195.289 103.333 200.664 105.875 207.247 105.875ZM317.173 120.625C307.256 120.625 298.631 118.833 291.298 115.25C283.965 111.583 278.34 106.417 274.423 99.75C270.506 93.0833 268.548 85.3333 268.548 76.5C268.548 64.25 270.84 53.375 275.423 43.875C280.09 34.375 286.381 27.0417 294.298 21.875C302.215 16.625 311.006 14 320.673 14C329.673 14 336.506 16.3333 341.173 21C345.84 25.5833 348.173 31.6667 348.173 39.25C348.173 44.3333 347.256 48.4167 345.423 51.5C343.673 54.5833 341.131 56.125 337.798 56.125C335.465 56.125 333.631 55.5833 332.298 54.5C330.965 53.4167 330.298 51.8333 330.298 49.75C330.298 49 330.465 47.625 330.798 45.625C331.298 43.125 331.548 41.125 331.548 39.625C331.548 32.0417 327.506 28.25 319.423 28.25C313.923 28.25 308.673 30.0417 303.673 33.625C298.673 37.2083 294.631 42.5 291.548 49.5C288.465 56.4167 286.923 64.6667 286.923 74.25C286.923 84.25 289.715 92 295.298 97.5C300.881 102.917 309.131 105.625 320.048 105.625C325.465 105.625 330.923 104.958 336.423 103.625C342.006 102.208 348.173 100.083 354.923 97.25C356.173 96.75 357.215 96.5 358.048 96.5C359.381 96.5 360.381 97 361.048 98C361.715 99 362.048 100.292 362.048 101.875C362.048 106.958 359.298 110.708 353.798 113.125C347.881 115.708 341.715 117.625 335.298 118.875C328.965 120.042 322.923 120.625 317.173 120.625ZM421.616 92.125C422.7 92.125 423.533 92.625 424.116 93.625C424.783 94.625 425.116 96 425.116 97.75C425.116 101.083 424.325 103.667 422.741 105.5C418.908 109.917 414.95 113.542 410.866 116.375C406.866 119.208 402.283 120.625 397.116 120.625C392.866 120.625 389.658 119.417 387.491 117C385.325 114.5 384.241 110.917 384.241 106.25C384.241 103.917 384.825 99.75 385.991 93.75C387.075 88.5 387.616 84.875 387.616 82.875C387.616 81.5417 387.158 80.875 386.241 80.875C385.158 80.875 383.616 82.2917 381.616 85.125C379.616 87.875 377.616 91.5417 375.616 96.125C373.616 100.708 371.991 105.542 370.741 110.625C369.158 117.292 365.241 120.625 358.991 120.625C356.491 120.625 354.825 119.75 353.991 118C353.241 116.167 352.866 112.917 352.866 108.25C352.866 105.583 352.908 103.458 352.991 101.875L353.116 91.875C353.116 79.0417 354.408 65.6667 356.991 51.75C359.658 37.8333 363.533 26.1667 368.616 16.75C373.783 7.24999 379.95 2.49999 387.116 2.49999C390.95 2.49999 394.033 4.16666 396.366 7.5C398.783 10.75 399.991 15 399.991 20.25C399.991 28.6667 397.533 37.4167 392.616 46.5C387.7 55.5 379.7 66.0417 368.616 78.125C368.366 82.4583 368.241 86.9167 368.241 91.5C370.991 84.4167 374.033 78.6667 377.366 74.25C380.783 69.75 384.116 66.5417 387.366 64.625C390.7 62.7083 393.741 61.75 396.491 61.75C401.908 61.75 404.616 64.4583 404.616 69.875C404.616 73.125 403.7 79 401.866 87.5C400.283 94.75 399.491 99.5417 399.491 101.875C399.491 105.208 400.7 106.875 403.116 106.875C404.783 106.875 406.741 105.875 408.991 103.875C411.325 101.792 414.408 98.4583 418.241 93.875C419.241 92.7083 420.366 92.125 421.616 92.125ZM384.491 14.875C382.991 14.875 381.325 17.0417 379.491 21.375C377.658 25.625 375.866 31.4167 374.116 38.75C372.45 46 371.075 53.9167 369.991 62.5C375.158 56.4167 379.408 49.7917 382.741 42.625C386.158 35.4583 387.866 28.9583 387.866 23.125C387.866 20.4583 387.575 18.4167 386.991 17C386.408 15.5833 385.575 14.875 384.491 14.875ZM478.735 81.625C479.819 81.625 480.652 82.1667 481.235 83.25C481.819 84.3333 482.11 85.7083 482.11 87.375C482.11 91.375 480.902 93.75 478.485 94.5C473.485 96.25 467.985 97.25 461.985 97.5C460.402 104.5 457.277 110.125 452.61 114.375C447.944 118.542 442.652 120.625 436.735 120.625C431.735 120.625 427.444 119.417 423.86 117C420.36 114.583 417.694 111.375 415.86 107.375C414.027 103.375 413.11 99.0417 413.11 94.375C413.11 88.0417 414.319 82.4167 416.735 77.5C419.152 72.5 422.485 68.625 426.735 65.875C430.985 63.0417 435.694 61.625 440.86 61.625C447.194 61.625 452.277 63.8333 456.11 68.25C460.027 72.5833 462.319 77.9583 462.985 84.375C466.902 84.125 471.569 83.2917 476.985 81.875C477.652 81.7083 478.235 81.625 478.735 81.625ZM437.735 107.375C440.402 107.375 442.694 106.292 444.61 104.125C446.61 101.958 447.944 98.8333 448.61 94.75C446.027 93 444.027 90.7083 442.61 87.875C441.277 85.0417 440.61 82.0417 440.61 78.875C440.61 77.5417 440.735 76.2083 440.985 74.875H440.36C437.027 74.875 434.235 76.5 431.985 79.75C429.819 82.9167 428.735 87.4167 428.735 93.25C428.735 97.8333 429.61 101.333 431.36 103.75C433.194 106.167 435.319 107.375 437.735 107.375ZM487.757 53.5C484.257 53.5 481.632 52.7083 479.882 51.125C478.132 49.4583 477.257 47.1667 477.257 44.25C477.257 41.3333 478.382 38.9167 480.632 37C482.965 35 485.84 34 489.257 34C492.34 34 494.84 34.75 496.757 36.25C498.674 37.75 499.632 39.875 499.632 42.625C499.632 45.9583 498.549 48.625 496.382 50.625C494.215 52.5417 491.34 53.5 487.757 53.5ZM486.757 120.625C481.34 120.625 477.382 118.708 474.882 114.875C472.465 111.042 471.257 105.958 471.257 99.625C471.257 95.875 471.715 91.0833 472.632 85.25C473.632 79.3333 474.882 73.8333 476.382 68.75C477.132 66.0833 478.132 64.25 479.382 63.25C480.632 62.25 482.632 61.75 485.382 61.75C489.632 61.75 491.757 63.1667 491.757 66C491.757 68.0833 490.965 72.9167 489.382 80.5C487.382 89.6667 486.382 95.875 486.382 99.125C486.382 101.625 486.715 103.542 487.382 104.875C488.049 106.208 489.174 106.875 490.757 106.875C492.257 106.875 494.132 105.833 496.382 103.75C498.632 101.667 501.632 98.375 505.382 93.875C506.382 92.7083 507.507 92.125 508.757 92.125C509.84 92.125 510.674 92.625 511.257 93.625C511.924 94.625 512.257 96 512.257 97.75C512.257 101.083 511.465 103.667 509.882 105.5C501.632 115.583 493.924 120.625 486.757 120.625ZM526.019 120.625C517.852 120.625 511.477 118.333 506.894 113.75C502.394 109.083 500.144 102.958 500.144 95.375C500.144 88.625 501.477 82.7083 504.144 77.625C506.81 72.5417 510.269 68.625 514.519 65.875C518.769 63.125 523.227 61.75 527.894 61.75C532.477 61.75 536.019 63.125 538.519 65.875C541.102 68.5417 542.394 72 542.394 76.25C542.394 79.75 541.602 82.7083 540.019 85.125C538.519 87.5417 536.519 88.75 534.019 88.75C532.435 88.75 531.144 88.375 530.144 87.625C529.227 86.875 528.769 85.8333 528.769 84.5C528.769 83.9167 528.852 83.25 529.019 82.5C529.185 81.75 529.31 81.2083 529.394 80.875C529.81 79.625 530.019 78.4583 530.019 77.375C530.019 76.2917 529.727 75.4583 529.144 74.875C528.644 74.2917 527.894 74 526.894 74C524.977 74 523.185 74.875 521.519 76.625C519.852 78.2917 518.519 80.5833 517.519 83.5C516.519 86.4167 516.019 89.625 516.019 93.125C516.019 102.792 520.227 107.625 528.644 107.625C532.06 107.625 535.727 106.5 539.644 104.25C543.644 101.917 547.56 98.4583 551.394 93.875C552.394 92.7083 553.519 92.125 554.769 92.125C555.852 92.125 556.685 92.625 557.269 93.625C557.935 94.625 558.269 96 558.269 97.75C558.269 100.917 557.477 103.5 555.894 105.5C551.977 110.333 547.269 114.083 541.769 116.75C536.352 119.333 531.102 120.625 526.019 120.625ZM592.914 95.875C593.997 95.875 594.831 96.375 595.414 97.375C596.081 98.375 596.414 99.75 596.414 101.5C596.414 104.5 595.706 107.083 594.289 109.25C591.956 112.833 588.872 115.625 585.039 117.625C581.289 119.625 576.789 120.625 571.539 120.625C563.539 120.625 557.331 118.25 552.914 113.5C548.497 108.667 546.289 102.167 546.289 94C546.289 88.25 547.497 82.9167 549.914 78C552.331 73 555.664 69.0417 559.914 66.125C564.247 63.2083 569.122 61.75 574.539 61.75C579.372 61.75 583.247 63.2083 586.164 66.125C589.081 68.9583 590.539 72.8333 590.539 77.75C590.539 83.5 588.456 88.4583 584.289 92.625C580.206 96.7083 573.206 99.9583 563.289 102.375C565.289 106.208 568.664 108.125 573.414 108.125C576.831 108.125 579.622 107.333 581.789 105.75C584.039 104.167 586.622 101.5 589.539 97.75C590.539 96.5 591.664 95.875 592.914 95.875ZM572.414 74C569.331 74 566.706 75.7917 564.539 79.375C562.456 82.9583 561.414 87.2917 561.414 92.375V92.625C566.331 91.4583 570.206 89.7083 573.039 87.375C575.872 85.0417 577.289 82.3333 577.289 79.25C577.289 77.6667 576.831 76.4167 575.914 75.5C575.081 74.5 573.914 74 572.414 74Z" fill="#FFA200"/>
</g>
<defs>
<clipPath id="clip0_1_2">
<rect width="600" height="164" fill="white"/>
</clipPath>
</defs>
</svg>
